<?xml version="1.0" standalone="no"?><!DOCTYPE svg PUBLIC "-//W3C//DTD SVG 1.1//EN" "http://www.w3.org/Graphics/SVG/1.1/DTD/svg11.dtd"><svg t="1535005334221" class="icon" style="" viewBox="0 0 1024 1024" version="1.1" xmlns="http://www.w3.org/2000/svg" p-id="10593" xmlns:xlink="http://www.w3.org/1999/xlink" width="20" height="20"><defs><style type="text/css"></style></defs><path d="M923.506677 358.020379a37.627196 37.627196 0 0 0-38.062193 37.409697v553.53303H72.218552V145.742093h533.740689a37.409698 37.409698 0 1 0 0-74.819396H55.253689A55.67955 55.67955 0 0 0 0.226633 125.07976v844.763177a55.67955 55.67955 0 0 0 55.027056 54.157063h855.638089a55.67955 55.67955 0 0 0 55.027056-54.157063v-574.195362a44.804638 44.804638 0 0 0-43.499649-37.627196z m0 0" fill="#5da8cf" p-id="10594"></path><path d="M1012.463458 45.910399A84.606817 84.606817 0 0 0 935.46908 0.01827a82.431834 82.431834 0 0 0-67.641954 33.277231L792.137738 108.767392c-135.501406 133.108925-266.870345 266.435348-402.371751 395.411806A456.746311 456.746311 0 0 0 271.229445 696.012649a38.714687 38.714687 0 0 0 4.132466 37.409698 33.059733 33.059733 0 0 0 42.194659 8.264933c25.447294-8.264933 50.894589-21.749824 80.47435-29.144765a241.858047 241.858047 0 0 0 88.956782-54.157062l500.24596-491.328532a183.133521 183.133521 0 0 0 25.229796-30.014758 98.526704 98.526704 0 0 0 0-91.131764zM872.829586 174.016865L445.010541 595.310962c-8.482431 8.264933-16.964863 16.747365-29.579761 4.132467s-4.132467-21.749824 4.132467-29.144765L848.469783 149.87456c4.132467-4.132467 12.614898-16.747365 21.749824-8.264934 4.132467 4.132467 12.614898 8.264933 16.964863 16.747365-8.69993 8.264933-8.69993 12.3974-12.832396 16.529867z m0 0" fill="#5da8cf" p-id="10595"></path></svg>