<?xml version="1.0" standalone="no"?><!DOCTYPE svg PUBLIC "-//W3C//DTD SVG 1.1//EN" "http://www.w3.org/Graphics/SVG/1.1/DTD/svg11.dtd"><svg t="1534995208109" class="icon" style="" viewBox="0 0 1024 1024" version="1.1" xmlns="http://www.w3.org/2000/svg" p-id="8439" xmlns:xlink="http://www.w3.org/1999/xlink" width="20" height="20"><defs><style type="text/css"></style></defs><path d="M512 2.068687C230.658586 2.068687 2.068687 230.658586 2.068687 512s228.589899 509.931313 509.931313 509.931313 509.931313-228.589899 509.931313-509.931313S793.341414 2.068687 512 2.068687z m248.242424 669.220202c0 21.721212-11.377778 41.373737-28.961616 48.614141-6.206061 3.10303-11.377778 4.137374-17.583838 4.137374H310.30303c-4.137374 0-7.240404-1.034343-10.343434-2.068687-20.686869-5.171717-36.20202-25.858586-36.20202-51.717172V352.711111c0-28.961616 20.686869-52.751515 46.545454-52.751515h403.39394c25.858586 0 46.545455 23.789899 46.545454 52.751515v318.577778z" fill="#1296db" p-id="8440"></path><path d="M699.216162 332.024242H324.783838c-15.515152 0-28.961616 14.480808-28.961616 33.09899v295.822223c0 11.377778 5.171717 20.686869 12.412121 26.892929l79.644445-84.816162c12.412121-13.446465 32.064646-12.412121 43.442424 2.068687l5.171717 6.206061-68.266666 72.40404c-8.274747 8.274747-9.309091 15.515152-5.171718 19.652525 1.034343-1.034343 2.068687-3.10303 3.103031-4.137373l185.147475-196.525253c12.412121-13.446465 32.064646-12.412121 43.442424 2.068687l132.395959 161.357576V364.088889c1.034343-17.583838-12.412121-32.064646-27.927272-32.064647z m-298.925253 155.151516c-10.343434 0-19.652525-3.10303-27.927273-8.274748-2.068687-1.034343-4.137374-3.10303-5.171717-5.171717-9.309091-9.309091-15.515152-21.721212-15.515151-36.20202 0-26.892929 21.721212-49.648485 49.648485-49.648485 26.892929 0 49.648485 21.721212 49.648484 49.648485-1.034343 27.927273-23.789899 49.648485-50.682828 49.648485z" fill="#1296db" p-id="8441"></path></svg>