<?xml version="1.0" standalone="no"?><!DOCTYPE svg PUBLIC "-//W3C//DTD SVG 1.1//EN" "http://www.w3.org/Graphics/SVG/1.1/DTD/svg11.dtd"><svg t="1534994839772" class="icon" style="" viewBox="0 0 1024 1024" version="1.1" xmlns="http://www.w3.org/2000/svg" p-id="7254" xmlns:xlink="http://www.w3.org/1999/xlink" width="200" height="200"><defs><style type="text/css"></style></defs><path d="M978.943708 312.575805A511.103681 511.103681 0 0 0 709.183877 40.063975a505.855684 505.855684 0 0 0-394.559754 0A506.047684 506.047684 0 0 0 153.536224 149.759906 513.023679 513.023679 0 0 0 5.120317 511.93568a512.895679 512.895679 0 0 0 309.567806 471.871705A500.671687 500.671687 0 0 0 512 1023.99936a501.247687 501.247687 0 0 0 358.271776-149.951906 504.639685 504.639685 0 0 0 108.671932-162.687899 518.271676 518.271676 0 0 0 0-398.78375zM947.199728 511.87168c-0.128 242.431848-195.391878 439.679725-435.199728 439.679725-239.93585 0-435.135728-197.247877-435.135728-439.679725 0-242.495848 195.199878-439.679725 435.135728-439.679725 239.93585-0.064 435.199728 197.183877 435.199728 439.679725z" fill="#d81e06" p-id="7255"></path><path d="M311.872125 458.367714c39.487975 0 71.679955-32.44798 71.679955-72.319955s-32.19198-72.319955-71.679955-72.319955c-39.487975 0-71.487955 32.38398-71.487955 72.191955a71.679955 71.679955 0 0 0 71.487955 72.447955zM712.191875 459.775713c39.359975 0 71.423955-32.44798 71.423955-72.255955 0-39.999975-32.06398-72.447955-71.423955-72.447955-39.487975 0-71.679955 32.44798-71.679955 72.447955 0 39.807975 32.19198 72.255955 71.679955 72.255955zM770.879838 621.567612a36.479977 36.479977 0 0 0-50.175968 7.423995c-47.99997 65.151959-126.079921 103.871935-208.70387 103.871935s-160.7039-38.719976-208.63987-103.743935a36.479977 36.479977 0 0 0-50.239968-7.551995 36.287977 36.287977 0 0 0-7.295996 50.559968 326.783796 326.783796 0 0 0 114.303929 96.895939 335.35979 335.35979 0 0 0 303.55181 0 327.551795 327.551795 0 0 0 114.495929-96.959939 36.543977 36.543977 0 0 0-7.295996-50.495968z" fill="#d81e06" p-id="7256"></path></svg>