<?xml version="1.0" standalone="no"?><!DOCTYPE svg PUBLIC "-//W3C//DTD SVG 1.1//EN" "http://www.w3.org/Graphics/SVG/1.1/DTD/svg11.dtd"><svg t="1535006919310" class="icon" style="" viewBox="0 0 1322 1024" version="1.1" xmlns="http://www.w3.org/2000/svg" p-id="11937" xmlns:xlink="http://www.w3.org/1999/xlink" width="25.8203125" height="20"><defs><style type="text/css"></style></defs><path d="M1150.475235 420.83511L1043.260188 329.028213V253.91348c0-13.803135-11.23511-25.038245-25.038244-25.038245s-25.038245 11.23511-25.038245 25.038245v32.421316L719.689028 51.360502l-0.963009-0.96301c-12.519122-9.630094-29.532288-9.630094-42.051411 0l-0.642006 0.321003-274.136677 235.616301V253.91348c0-13.803135-11.23511-25.038245-25.038245-25.038245s-25.038245 11.23511-25.038244 25.038245v75.114733l-107.215047 92.1279c-10.2721 8.988088-11.556113 24.717241-2.568025 34.989342s24.717241 11.556113 34.989341 2.568025l75.114734-64.52163v431.428213c0 69.65768 54.24953 126.154232 121.018182 126.154232h447.157366c66.768652 0 121.018182-56.496552 121.018182-126.154232V393.870846l75.114734 64.52163c4.815047 4.173041 10.593103 6.09906 16.050157 6.09906 7.062069 0 13.803135-2.889028 18.939185-8.667085 10.593103-10.2721 9.309091-26.001254-0.96301-34.989341z m-228.875235 482.146708H474.12163c-40.125392 0-72.546708-34.668339-72.546708-77.361755V352.140439l296.285893-254.555486 296.285893 254.555486v473.158621c0 42.693417-32.421317 77.682759-72.546708 77.682758z" fill="#b65caf" p-id="11938"></path><path d="M578.447649 437.20627m-29.211285 0a29.211285 29.211285 0 1 0 58.42257 0 29.211285 29.211285 0 1 0-58.42257 0Z" fill="#b65caf" p-id="11939"></path><path d="M810.532915 437.20627m-29.211285 0a29.211285 29.211285 0 1 0 58.422571 0 29.211285 29.211285 0 1 0-58.422571 0Z" fill="#b65caf" p-id="11940"></path><path d="M804.754859 487.603762c-13.803135 0-25.038245 11.23511-25.038245 25.038244 0 44.940439-35.952351 80.250784-82.176802 80.250784-45.903448 0-82.176803-35.310345-82.176803-80.250784 0-13.803135-11.23511-25.038245-25.038244-25.038244s-25.038245 11.23511-25.038245 25.038244c0 72.867712 57.780564 130.00627 131.932289 130.00627 73.830721 0 131.932288-57.138558 131.932288-130.00627 0.642006-13.803135-10.593103-25.038245-24.396238-25.038244z" fill="#b65caf" p-id="11941"></path></svg>