<?xml version="1.0" standalone="no"?><!DOCTYPE svg PUBLIC "-//W3C//DTD SVG 1.1//EN" "http://www.w3.org/Graphics/SVG/1.1/DTD/svg11.dtd"><svg t="1534995056788" class="icon" style="" viewBox="0 0 1024 1024" version="1.1" xmlns="http://www.w3.org/2000/svg" p-id="8096" xmlns:xlink="http://www.w3.org/1999/xlink" width="200" height="200"><defs><style type="text/css"></style></defs><path d="M512 84.479043c-236.110509 0-427.520957 191.406354-427.520957 427.520957 0 236.110509 191.410448 427.520957 427.520957 427.520957s427.520957-191.410448 427.520957-427.520957c0-236.115626-191.410448-427.520957-427.520957-427.520957z m0 760.037143c-183.644577 0-332.516186-148.876726-332.516186-332.516186s148.872632-332.516186 332.516186-332.516186 332.516186 148.876726 332.516186 332.516186-148.872632 332.516186-332.516186 332.516186z" fill="#1296db" p-id="8097"></path><path d="M583.252811 369.492332c-12.971429 0-23.497157 10.240225-23.729448 22.953782h-0.021489v286.6076h0.021489c0.232291 12.713556 10.758018 22.953781 23.729448 22.953781s23.497157-10.240225 23.729447-22.953781h0.021489v-286.6076h-0.021489c-0.232291-12.712533-10.756995-22.953781-23.729447-22.953782zM485.299895 513.062192c-0.072655 0-0.143263 0.010233-0.215918 0.011256l-0.236384-0.223081-49.149396-0.850367v0.094144a23.781636 23.781636 0 0 0-1.860371-0.094144c-13.116739 0-23.750937 10.633175-23.750937 23.750937s10.634198 23.750937 23.750937 23.750937c0.62831 0 1.24434-0.046049 1.860371-0.094144v0.089027h25.849738V632.846322c-19.322068 13.623275-42.86425 21.659299-68.304666 21.659299-65.586764 0-118.755708-53.16485-118.755708-118.755707 0-65.586764 53.168943-118.755708 118.755708-118.755708 28.704762 0 54.998615 10.221806 75.528184 27.176966l-0.223081-0.23536 0.067538-0.070609c4.247744 3.985778 9.946536 6.444782 16.23066 6.444783 13.117762 0 23.750937-10.634198 23.750937-23.750937 0-6.67912-2.765997-12.704346-7.204076-17.019629l0.019443-0.020466c-0.144286-0.12382-0.294712-0.23843-0.438998-0.361227a23.919782 23.919782 0 0 0-2.236948-1.836835c-28.704762-23.610744-65.426105-37.829584-105.494682-37.829583-91.822288 0-166.258605 74.441433-166.258605 166.258605 0 91.822288 74.436316 166.258605 166.258605 166.258604 24.349571 0 47.466058-5.252631 68.304665-14.657838v1.162476l2.272763-0.60989c3.973498 7.561209 11.891841 12.724813 21.025873 12.724812 13.117762 0 23.750937-10.634198 23.750937-23.750937 0-0.331551-0.035816-0.652869-0.049119-0.98135l0.50142-0.135077V535.750937l-0.056282-0.053212c-0.585331-12.595876-10.952446-22.635533-23.692608-22.635533zM774.059508 512.008186v-0.008186h-72.05099v-95.004771h72.05099v-0.008186c13.043061-0.086981 23.591301-10.679223 23.591301-23.742751 0-13.063527-10.54824-23.655769-23.591301-23.74275v-0.008186h-95.801927c-13.117762 0-23.750937 10.633175-23.750937 23.750936v285.811468c0 13.117762 10.633175 23.750937 23.750937 23.750937s23.750937-10.634198 23.750937-23.750937V559.497781h71.798233c0.030699 0 0.061398 0.005117 0.092098 0.005116 0.031722 0 0.061398-0.004093 0.092097-0.005116h0.066515v-0.00307c13.043061-0.086981 23.591301-10.679223 23.591301-23.742751 0.00307-13.06455-10.54517-23.656793-23.589254-23.743774z" fill="#1296db" p-id="8098"></path></svg>