<?xml version="1.0" standalone="no"?><!DOCTYPE svg PUBLIC "-//W3C//DTD SVG 1.1//EN" "http://www.w3.org/Graphics/SVG/1.1/DTD/svg11.dtd"><svg t="1535272277976" class="icon" style="" viewBox="0 0 1024 1024" version="1.1" xmlns="http://www.w3.org/2000/svg" p-id="8973" xmlns:xlink="http://www.w3.org/1999/xlink" width="48" height="48"><defs><style type="text/css"></style></defs><path d="M856.640318 568.32175h0.034792c6.943133-0.00307 13.433964-2.745531 18.277272-7.722892l55.585993-57.129138c9.810437-10.081613 9.588379-26.266224-0.494257-36.07973-10.082636-9.809413-26.269293-9.586332-36.080753 0.496303l-55.589063 57.130162c-9.80532 10.085706-9.580193 26.270317 0.490164 36.07052a25.324782 25.324782 0 0 0 17.775852 7.234775zM723.101929 639.610376l-55.587016 57.133232c-9.80839 10.084683-9.585309 26.270317 0.494257 36.078706 4.789073 4.663206 11.098779 7.228635 17.759479 7.228635h0.034792c6.950296 0 13.44522-2.743484 18.286482-7.722891l55.585993-57.132209c9.807367-10.082636 9.589402-26.266224-0.490164-36.081776-10.084683-9.806343-26.272363-9.586332-36.083823 0.496303zM730.513736 618.525152c4.731768-4.90266 7.270591-11.355629 7.151887-18.168802-0.243547-13.902638-11.665691-25.065885-25.566282-25.065885-0.132006 0-0.264013 0.001023-0.394997 0.00307l-79.702249 1.406023c-14.063297 0.255827-25.305339 11.902074-25.057699 25.962301 0.24457 13.81975 11.686157 25.062815 25.50386 25.062816h0.385787l79.769788-1.407046c6.815219-0.119727 13.176091-2.886747 17.909905-7.792477zM655.521764 508.124739l60.052724 52.408627a25.415856 25.415856 0 0 0 16.73515 6.297427h0.066515a25.455765 25.455765 0 0 0 19.202341-8.736989c4.483104-5.132904 6.698562-11.704576 6.237051-18.505469-0.461511-6.798846-3.542686-13.010315-8.676613-17.494443l-60.054771-52.414766c-5.135974-4.481058-11.710716-6.699586-18.507516-6.235005-6.800893 0.460488-13.014408 3.543709-17.496489 8.679683-9.246595 10.598382-8.151657 26.748201 2.441608 36.000935zM793.798061 408.150794c-14.069437 0-25.51614 11.446703-25.51614 25.517163v79.70839c0 14.069437 11.446703 25.515117 25.51614 25.515117S819.314201 527.445784 819.314201 513.376347v-79.70839c0-14.07046-11.446703-25.517163-25.51614-25.517163zM793.798061 650.745994c-14.069437 0-25.51614 11.447726-25.51614 25.518187v79.70839c0 14.069437 11.446703 25.51614 25.51614 25.51614S819.314201 770.040984 819.314201 755.971547v-79.708389c0-14.069437-11.446703-25.517163-25.51614-25.517164zM954.268846 575.293535l-79.721693 1.406023c-14.068414 0.255827-25.306362 11.904121-25.052582 25.964348 0.24764 13.818727 11.689227 25.060769 25.504883 25.060769h0.38681l79.767742-1.407046c6.814196-0.119727 13.174044-2.886747 17.907858-7.791454 4.734838-4.90573 7.27366-11.360745 7.14984-18.169825-0.246617-14.033621-11.890818-25.269523-25.942858-25.062815zM922.204569 690.827875l-60.053747-52.414767c-10.596336-9.252735-26.749224-8.15882-36.008099 2.446725-9.243525 10.602476-8.144494 26.753317 2.451842 36.000935l60.044538 52.405557a25.423019 25.423019 0 0 0 16.743336 6.297427h0.055258c7.378038 0 14.382569-3.187599 19.208481-8.736989 4.482081-5.134951 6.695492-11.7056 6.233981-18.506492-0.461511-6.798846-3.543709-13.011338-8.67559-17.492396z" fill="#195a0e" p-id="8974"></path><path d="M448.970478 209.881125m-172.885536 0a172.885536 172.885536 0 1 0 345.771072 0 172.885536 172.885536 0 1 0-345.771072 0Z" fill="#195a0e" p-id="8975"></path><path d="M427.974281 415.433664c-113.342418 0-205.553563-92.211145-205.553562-205.553563 0-113.342418 92.211145-205.553563 205.553562-205.553562s205.553563 92.211145 205.553563 205.553562c0 113.343441-92.211145 205.553563-205.553563 205.553563z m0-382.453529c-97.543593 0-176.900989 79.357396-176.900989 176.90099s79.357396 176.900989 176.900989 176.900989 176.900989-79.357396 176.90099-176.900989-79.357396-176.900989-176.90099-176.90099z" fill="#195a0e" p-id="8976"></path><path d="M102.754269 1005.318522h637.806287s-339.312986-221.10577-301.044404-489.409492c-38.268582 0-313.800939-8.079002-336.761883 489.409492z" fill="#195a0e" p-id="8977"></path><path d="M759.808946 1020.049015H56.768935a14.32731 14.32731 0 0 1-14.310938-14.98632c5.809309-125.864616 26.817786-232.588289 62.440098-317.205478 29.55206-70.199829 69.409836-125.953643 118.464065-165.713183 36.985356-29.977755 78.863139-50.699706 124.470873-61.58973 36.619012-8.744151 65.751516-8.659217 78.187757-8.627494l1.953491 0.004093a14.326287 14.326287 0 0 1 14.183024 16.349363c-9.217942 64.62281 1.813299 132.192741 32.786731 200.828958 25.091468 55.602366 63.22702 112.031563 113.347534 167.722956 85.965907 95.522564 178.417529 156.288532 179.342598 156.890236 5.308913 3.463891 7.712659 10.005888 5.9055 16.083304s-7.391341 10.243295-13.730722 10.243295z m-687.958525-28.652574h643.25437c-35.743062-26.996864-92.435249-73.620741-147.673318-134.911666-52.218292-57.939597-92.074022-116.90864-118.457925-175.266769-30.749328-68.01507-43.212174-135.362944-37.130665-200.464661-13.878079 0.464581-34.002418 2.092661-57.356313 7.66968-41.406039 9.887184-79.453586 28.721135-113.083521 55.979966-45.351907 36.759205-82.394568 88.763626-110.098537 154.571424-32.899294 78.149894-52.883441 176.476317-59.454091 292.422026z" fill="#195a0e" p-id="8978"></path></svg>