<?xml version="1.0" standalone="no"?><!DOCTYPE svg PUBLIC "-//W3C//DTD SVG 1.1//EN" "http://www.w3.org/Graphics/SVG/1.1/DTD/svg11.dtd"><svg t="1534397730007" class="icon" style="" viewBox="0 0 1024 1024" version="1.1" xmlns="http://www.w3.org/2000/svg" p-id="3611" xmlns:xlink="http://www.w3.org/1999/xlink" width="200" height="200"><defs><style type="text/css"></style></defs><path d="M448.896 280.593067V230.408533A16.981333 16.981333 0 0 1 465.774933 213.333333h84.036267c9.326933 0 16.878933 7.662933 16.878933 17.0752v50.184534a232.482133 232.482133 0 0 1 59.178667 24.6016l35.345067-35.84c6.570667-6.664533 17.237333-6.656 23.8336 0.034133l59.4176 60.270933c6.587733 6.6816 6.587733 17.518933 0.034133 24.174934l-34.679467 35.182933a239.914667 239.914667 0 0 1 26.4704 64.5376h50.414934c9.301333 0 16.836267 7.6544 16.836266 17.117867v85.230933c0 9.454933-7.552 17.117867-16.836266 17.117867h-51.072a239.547733 239.547733 0 0 1-24.8576 60.356266l33.732266 34.218667c6.570667 6.664533 6.570667 17.493333-0.034133 24.174933L685.056 752.042667a16.699733 16.699733 0 0 1-23.8336 0.034133l-33.7408-34.218667a232.055467 232.055467 0 0 1-60.7744 25.5488V793.6a16.981333 16.981333 0 0 1-16.878933 17.0752h-84.036267c-9.3184 0-16.878933-7.662933-16.878933-17.0752v-50.193067a232.482133 232.482133 0 0 1-62.3616-26.504533l-34.679467 35.1744c-6.570667 6.664533-17.237333 6.664533-23.8336-0.034133l-59.4176-60.270934a17.28 17.28 0 0 1-0.0256-24.174933l35.336533-35.84a239.232 239.232 0 0 1-23.927466-58.734933H231.432533c-9.2928 0-16.836267-7.645867-16.836266-17.117867v-85.230933c0-9.454933 7.552-17.117867 16.836266-17.117867h47.889067a239.377067 239.377067 0 0 1 25.514667-62.933333l-36.266667-36.795734a17.2544 17.2544 0 0 1 0.0256-24.174933l59.4176-60.270933a16.6912 16.6912 0 0 1 23.8336-0.034134l36.266667 36.795734a232.763733 232.763733 0 0 1 60.782933-25.5488z" fill="#BBBBBB" p-id="3612"></path><path d="M341.333333 512a170.666667 168.260267 90 1 0 336.520534 0 170.666667 168.260267 90 1 0-336.520534 0Z" fill="#FFFFFF" p-id="3613"></path></svg>