<?xml version="1.0" standalone="no"?><!DOCTYPE svg PUBLIC "-//W3C//DTD SVG 1.1//EN" "http://www.w3.org/Graphics/SVG/1.1/DTD/svg11.dtd"><svg t="1535006641010" class="icon" style="" viewBox="0 0 1024 1024" version="1.1" xmlns="http://www.w3.org/2000/svg" p-id="6430" xmlns:xlink="http://www.w3.org/1999/xlink" width="20" height="20"><defs><style type="text/css"></style></defs><path d="M512.072743 0C229.756503 0 0 229.722929 0 512c0 282.352612 229.756503 512 512.072743 512C794.31624 1024 1024 794.352612 1024 512 1024.145486 229.722929 794.391781 0 512.072743 0z m0 974.96271c-255.339716 0-463.102601-207.732109-463.102601-463.038251 0-255.227803 207.762885-462.959913 463.102601-462.959913 255.488 0 462.954317 207.732109 462.954317 462.962711 0 255.300546-207.614601 463.035454-462.954317 463.035453z" fill="#a96a2c" p-id="6431"></path><path d="M786.977574 488.084284c-3.421727-7.570885-7.643628-14.047825-13.250448-19.509158-5.534077-5.461333-12.086557-9.901464-19.509159-13.177705-7.570885-3.348984-15.508284-4.949333-24.02483-4.949334-16.744918 0-31.304743 6.043279-43.388503 18.127039-12.086557 12.086557-18.127038 26.570842-18.127038 43.388502 0 16.814863 6.116022 31.377486 18.199781 43.533989 12.086557 12.086557 26.570842 18.054295 43.388503 18.054296 16.814863 0 31.304743-5.970536 43.533989-18.054296 12.011016-12.156503 17.981552-26.719126 17.981552-43.533989 0-8.37106-1.527607-16.451148-4.803847-23.879344zM555.424874 468.502383c-5.461333-5.315847-12.011016-9.755978-19.509158-13.032219a59.512306 59.512306 0 0 0-23.879344-5.022077c-16.890404 0-31.377486 6.043279-43.533989 18.054296-12.011016 12.229246-18.054295 26.719126-18.054296 43.461245 0 16.890404 6.043279 31.377486 18.127039 43.533989 12.086557 12.086557 26.570842 18.054295 43.461246 18.054296 16.814863 0 31.232-5.970536 43.388502-18.054296 12.086557-12.156503 18.127038-26.643585 18.127039-43.533989 0-8.37106-1.60035-16.451148-4.876591-23.949289-3.421727-7.428197-7.789115-13.905137-13.250448-19.511956zM337.195366 468.502383c-5.461333-5.315847-11.938273-9.755978-19.436415-13.104962-7.643628-3.273443-15.508284-4.949333-23.952088-4.949334-16.890404 0-31.304743 6.043279-43.388502 18.054296-12.156503 12.229246-18.199781 26.719126-18.199782 43.461245 0 16.890404 6.043279 31.377486 18.127038 43.533989 12.086557 12.086557 26.498098 18.054295 43.461246 18.054296 16.814863 0 31.232-5.970536 43.388503-18.054296 12.011016-12.156503 18.127038-26.643585 18.127038-43.533989 0-8.37106-1.745836-16.451148-5.022076-23.949289a62.992787 62.992787 0 0 0-13.104962-19.511956z" fill="#a96a2c" p-id="6432"></path></svg>