<?xml version="1.0" standalone="no"?><!DOCTYPE svg PUBLIC "-//W3C//DTD SVG 1.1//EN" "http://www.w3.org/Graphics/SVG/1.1/DTD/svg11.dtd"><svg t="1535006716403" class="icon" style="" viewBox="0 0 1024 1024" version="1.1" xmlns="http://www.w3.org/2000/svg" p-id="7722" xmlns:xlink="http://www.w3.org/1999/xlink" width="20" height="20"><defs><style type="text/css"></style></defs><path d="M511.488511 512.511489m-511.488511 0a511.488511 511.488511 0 1 0 1022.977023 0 511.488511 511.488511 0 1 0-1022.977023 0Z" fill="#E5F5EC" p-id="7723" data-spm-anchor-id="a313x.7781069.0.i24" class="selected"></path><path d="M513.534466 512m-234.773227 0a234.773227 234.773227 0 1 0 469.546453 0 234.773227 234.773227 0 1 0-469.546453 0Z" fill="#ED8CE2" p-id="7724"></path><path d="M722.221778 374.921079c8.183816-13.298701 17.390609-29.666334 23.528472-46.545455 8.183816-22.505495 5.114885-42.965035-8.183816-55.240759-12.787213-11.764236-32.223776-12.787213-52.171829-3.580419-4.603397 2.045954-8.695305 4.091908-12.275724 6.137862-7.160839 3.58042-10.22977 12.275724-6.649351 19.948052 3.58042 7.160839 12.275724 10.22977 19.948052 6.64935 3.58042-1.534466 7.160839-3.58042 11.764236-5.626373 8.695305-4.091908 16.367632-4.603397 19.436564-1.022977 3.068931 2.557443 4.603397 10.741259 0 23.528471-6.137862 17.390609-18.925075 39.384615-33.758242 60.355645-52.683317 72.631369-100.251748 127.872128-145.774226 169.814185-58.30969 55.240759-114.061938 95.648352-159.072927 128.383617l-4.091908 3.068931c-0.511489 0.511489-1.022977 1.022977-1.534466 1.022977-48.591409-40.407592-79.792208-101.274725-79.792207-169.302697 0-121.222777 98.717283-219.94006 219.94006-219.94006 30.689311 0 60.867133 6.137862 88.999001 18.925074 7.672328 3.068931 16.367632 0 19.436563-7.672327 3.068931-7.672328 0-16.367632-7.672328-19.436564-31.712288-14.321678-65.982018-21.482517-100.763236-21.482517-66.493506 0-129.406593 26.085914-176.463537 73.142857-47.568432 46.033966-73.142857 108.947053-73.142857 175.440559 0 42.453546 10.741259 83.884116 30.689311 120.199801-8.695305 11.764236-20.971029 30.177822-30.177823 53.194805-7.672328 19.436563-5.114885 38.361638 6.649351 50.125874 5.114885 5.114885 14.321678 11.252747 29.154845 11.252747 8.183816 0 18.413586-2.045954 30.689311-6.64935 12.787213-5.114885 27.108891-12.787213 41.430569-21.482518 41.430569 28.643357 90.021978 43.988012 141.682318 43.988012 66.493506 0 129.406593-26.085914 176.463537-73.142857 47.056943-47.056943 73.142857-109.97003 73.142857-176.463536-0.511489-49.614386-14.833167-97.182817-41.43057-137.59041z m-403.052947 336.55944c-15.856144 6.137862-25.062937 5.114885-27.620379 2.045955-3.068931-3.068931-3.068931-10.22977 0-17.902098 5.626374-14.833167 13.298701-27.108891 19.948051-36.827173 7.672328 10.22977 15.856144 20.45954 25.574426 29.666333 3.068931 3.068931 6.649351 6.649351 10.22977 9.718282-10.22977 5.114885-19.436563 10.22977-28.131868 13.298701z m194.365635 20.459541c-41.942058 0-81.326673-11.764236-115.084916-32.223776 45.010989-32.735265 101.274725-73.654346 160.095905-129.406594 45.522478-41.942058 93.090909-97.182817 145.774225-168.27972 19.436563 33.246753 29.666334 71.096903 29.666334 110.481519-0.511489 120.711289-99.228771 219.428571-220.451548 219.428571z m-81.838162-345.766234c0-11.252747 4.603397-21.994006 12.275724-30.177822 7.672328-7.672328 18.925075-12.275724 30.177822-12.275724s21.994006 4.603397 30.177822 12.275724c7.672328 7.672328 12.275724 18.925075 12.275725 30.177822s-4.603397 21.994006-12.275725 30.177822c-7.672328 7.672328-18.925075 12.275724-30.177822 12.275725s-21.994006-4.603397-30.177822-12.275725c-7.672328-7.672328-12.275724-18.925075-12.275724-30.177822z m-62.401599 136.055944c0-6.649351 2.557443-12.787213 7.160839-17.390609 4.603397-4.603397 10.741259-7.160839 17.39061-7.160839 6.649351 0 12.787213 2.557443 17.390609 7.160839 4.603397 4.603397 7.160839 10.741259 7.160839 17.390609 0 6.649351-2.557443 12.787213-7.160839 17.39061-4.603397 4.603397-10.741259 7.160839-17.390609 7.160839-6.649351 0-12.787213-2.557443-17.39061-7.160839-4.603397-4.603397-7.160839-11.252747-7.160839-17.39061zM567.752248 639.360639c0-4.091908 1.534466-8.183816 4.603396-11.252747 3.068931-3.068931 7.160839-4.603397 11.252748-4.603396 4.091908 0 8.183816 1.534466 11.252747 4.603396 3.068931 3.068931 4.603397 7.160839 4.603396 11.252747 0 4.091908-1.534466 8.183816-4.603396 11.252748-3.068931 3.068931-7.160839 4.603397-11.252747 4.603396-4.091908 0-8.183816-1.534466-11.252748-4.603396-3.068931-3.068931-4.603397-7.160839-4.603396-11.252748z m0 0" fill="#754C24" p-id="7725"></path></svg>