<?xml version="1.0" standalone="no"?><!DOCTYPE svg PUBLIC "-//W3C//DTD SVG 1.1//EN" "http://www.w3.org/Graphics/SVG/1.1/DTD/svg11.dtd"><svg t="1534993172837" class="icon" style="" viewBox="0 0 1024 1024" version="1.1" xmlns="http://www.w3.org/2000/svg" p-id="2272" xmlns:xlink="http://www.w3.org/1999/xlink" width="200" height="200"><defs><style type="text/css"></style></defs><path d="M1024 512c0-263.509333-229.6832-477.866667-512.034133-477.866667C229.6832 34.133333 0 248.5248 0 512s229.6832 477.866667 511.965867 477.866667c93.661867 0 184.866133-23.688533 264.465066-68.608l234.837334 68.539733-53.930667-242.688A452.573867 452.573867 0 0 0 1024 512zM256 597.333333a85.333333 85.333333 0 1 1 0-170.666666 85.333333 85.333333 0 0 1 0 170.666666z m256 0a85.333333 85.333333 0 1 1 0-170.666666 85.333333 85.333333 0 0 1 0 170.666666z m256 0a85.333333 85.333333 0 1 1 0-170.666666 85.333333 85.333333 0 0 1 0 170.666666z" fill="#75BAB4" p-id="2273"></path></svg>